<svg width="20.000000" height="20.000000" viewBox="0 0 20 20" fill="none" xmlns="http://www.w3.org/2000/svg" xmlns:xlink="http://www.w3.org/1999/xlink">
	<desc>
			Created with Pixso.
	</desc>
	<defs>
		<clipPath id="clip113_518">
			<rect id="linkedin" width="20.000000" height="20.000000" fill="white" fill-opacity="0"/>
		</clipPath>
	</defs>
	<rect id="linkedin" width="20.000000" height="20.000000" fill="#FFFFFF" fill-opacity="0"/>
	<g clip-path="url(#clip113_518)">
		<path id="Vector" d="M17.5 17.5L14.1667 17.5L14.1667 11.875C14.1667 10.9916 13.175 10.2584 12.2917 10.2584C11.4083 10.2584 10.8333 10.9916 10.8333 11.875L10.8333 17.5L7.5 17.5L7.5 7.5L10.8333 7.5L10.8333 9.16669C11.3833 8.27502 12.8 7.70001 13.75 7.70001C15.8333 7.70001 17.5 9.40002 17.5 11.4583L17.5 17.5ZM5.83334 17.5L2.5 17.5L2.5 7.5L5.83334 7.5L5.83334 17.5ZM4.16666 2.5C4.6087 2.5 5.03262 2.6756 5.34518 2.98816C5.65775 3.30072 5.83334 3.72461 5.83334 4.16669C5.83334 4.6087 5.65775 5.03259 5.34518 5.34515C5.03262 5.65771 4.6087 5.83331 4.16666 5.83331C3.72464 5.83331 3.30072 5.65771 2.98816 5.34515C2.6756 5.03259 2.5 4.6087 2.5 4.16669C2.5 3.72461 2.6756 3.30072 2.98816 2.98816C3.30072 2.6756 3.72464 2.5 4.16666 2.5Z" fill="#FFFFFF" fill-opacity="1.000000" fill-rule="nonzero"/>
	</g>
</svg>
