<svg width="20.000000" height="20.000000" viewBox="0 0 20 20" fill="none" xmlns="http://www.w3.org/2000/svg" xmlns:xlink="http://www.w3.org/1999/xlink">
	<desc>
			Created with Pixso.
	</desc>
	<defs>
		<clipPath id="clip113_515">
			<rect id="twitter" width="20.000000" height="20.000000" fill="white" fill-opacity="0"/>
		</clipPath>
	</defs>
	<rect id="twitter" width="20.000000" height="20.000000" fill="#FFFFFF" fill-opacity="0"/>
	<g clip-path="url(#clip113_515)">
		<path id="Vector" d="M18.7166 4.99994C18.075 5.29156 17.3833 5.48328 16.6667 5.57489C17.4 5.13324 17.9667 4.43323 18.2333 3.59161C17.5417 4.00824 16.775 4.29993 15.9666 4.46661C15.3083 3.74994 14.3833 3.33325 13.3333 3.33325C11.375 3.33325 9.77499 4.93323 9.77499 6.90826C9.77499 7.19159 9.80832 7.46661 9.86667 7.72491C6.89999 7.57489 4.25833 6.1499 2.5 3.99158C2.19165 4.5166 2.01666 5.13324 2.01666 5.78326C2.01666 7.0249 2.64166 8.12494 3.60834 8.74994C3.01666 8.74994 2.46664 8.58325 1.98334 8.33325C1.98334 8.33325 1.98334 8.33325 1.98334 8.35828C1.98334 10.0916 3.21664 11.5416 4.85001 11.8666C4.54999 11.9499 4.23334 11.9916 3.90833 11.9916C3.68332 11.9916 3.45831 11.9666 3.24167 11.9249C3.69165 13.3333 5 14.3832 6.57498 14.4083C5.35834 15.3749 3.81665 15.9416 2.13333 15.9416C1.85001 15.9416 1.56665 15.9249 1.28333 15.8916C2.86667 16.9083 4.75 17.4999 6.76666 17.4999C13.3333 17.4999 16.9417 12.0499 16.9417 7.32489C16.9417 7.16656 16.9417 7.0166 16.9333 6.85828C17.6333 6.35828 18.2333 5.72491 18.7166 4.99994Z" fill="#FFFFFF" fill-opacity="1.000000" fill-rule="nonzero"/>
	</g>
</svg>
