<svg width="64.000000" height="43.000000" viewBox="0 0 64 43" fill="none" xmlns="http://www.w3.org/2000/svg" xmlns:xlink="http://www.w3.org/1999/xlink">
	<desc>
			Created with Pixso.
	</desc>
	<defs>
		<clipPath id="clip219_37">
			<rect id="GQ" width="64.000000" height="43.000000" transform="matrix(1 0 0 -1 0 43)" fill="white" fill-opacity="0"/>
		</clipPath>
	</defs>
	<rect id="GQ" width="64.000000" height="43.000000" transform="matrix(1 0 0 -1 0 43)" fill="#FFFFFF" fill-opacity="0"/>
	<g clip-path="url(#clip219_37)">
		<path id="Vector" d="M0 43L64 43L64 0L0 0L0 43Z" fill="#FFFFFF" fill-opacity="1.000000" fill-rule="nonzero"/>
		<path id="Vector" d="M0 43L64 43L64 28.6918L0 28.6918L0 43Z" fill="#6DA544" fill-opacity="1.000000" fill-rule="nonzero"/>
		<path id="Vector" d="M0 14.3837L64 14.3837L64 0L0 0L0 14.3837Z" fill="#D80027" fill-opacity="1.000000" fill-rule="nonzero"/>
		<path id="Vector" d="M15.7192 21.5377L0 0.0880127L0 43L15.7192 21.5377Z" fill="#0070C8" fill-opacity="1.000000" fill-rule="nonzero"/>
		<path id="Vector" d="M29.168 20.3936C29.168 15.9176 33.6094 15.9176 33.6094 15.9176C33.6094 15.9176 38.0505 15.9176 38.0505 20.3936L38.0505 25.4731L29.168 25.4731L29.168 20.3936Z" stroke="#000000" stroke-opacity="1.000000" stroke-width="1.000000"/>
		<path id="Vector" d="M32.998 20.3936L34.2207 20.3936L34.7197 17.1497L32.499 17.1497L32.998 20.3936Z" fill="#786145" fill-opacity="1.000000" fill-rule="nonzero"/>
		<path id="Vector" d="M35.8301 22.6316C35.8301 23.8638 34.832 24.4924 33.6094 24.4924C32.3867 24.4924 31.3887 23.8638 31.3887 22.6316C30.7773 22.6316 30.2783 22.1287 30.2783 21.5126C30.2783 20.8965 30.7773 20.3936 31.3887 20.3936L35.8301 20.3936C36.4414 20.3936 36.9404 20.8965 36.9404 21.5126C36.9404 22.1287 36.4414 22.6316 35.8301 22.6316Z" fill="#6DA544" fill-opacity="1.000000" fill-rule="nonzero"/>
		<path id="Vector" d="M28.7815 27.9122L29.0186 27.4973L29.4924 27.4973L29.2556 27.0824L29.4924 26.6801L29.0186 26.6801L28.7815 26.2651L28.5444 26.6801L28.0703 26.6801L28.3074 27.0824L28.0703 27.4973L28.5444 27.4973L28.7815 27.9122ZM30.6902 27.9122L30.9272 27.4973L31.3889 27.4973L31.1519 27.0824L31.3889 26.6801L30.9272 26.6801L30.6902 26.2651L30.4531 26.6801L29.979 26.6801L30.2161 27.0824L29.979 27.4973L30.4531 27.4973L30.6902 27.9122ZM32.5989 27.9122L32.8359 27.4973L33.2976 27.4973L33.0605 27.0824L33.2976 26.6801L32.8359 26.6801L32.5989 26.2651L32.3618 26.6801L31.8879 26.6801L32.125 27.0824L31.8879 27.4973L32.3618 27.4973L32.5989 27.9122ZM34.5701 27.9122L34.8071 27.4973L35.2812 27.4973L35.0442 27.0824L35.2812 26.6801L34.8071 26.6801L34.5701 26.2651L34.333 26.6801L33.8716 26.6801L34.0959 27.0824L33.8716 27.4973L34.333 27.4973L34.5701 27.9122ZM36.5662 27.9122L36.8032 27.4973L37.2773 27.4973L37.0403 27.0824L37.2773 26.6801L36.8032 26.6801L36.5662 26.2651L36.3291 26.6801L35.8677 26.6801L36.092 27.0824L35.8677 27.4973L36.3291 27.4973L36.5662 27.9122ZM38.4375 27.9122L38.6746 27.4973L39.1362 27.4973L38.8992 27.0824L39.1362 26.6801L38.6746 26.6801L38.4375 26.2651L38.2004 26.6801L37.7266 26.6801L37.9634 27.0824L37.7266 27.4973L38.2004 27.4973L38.4375 27.9122Z" fill="#FFDA00" fill-opacity="1.000000" fill-rule="nonzero"/>
		<path id="Vector" d="M29.0186 27.4973L29.4924 27.4973L29.2556 27.0824L29.4924 26.6801L29.0186 26.6801L28.7815 26.2651L28.5444 26.6801L28.0703 26.6801L28.3074 27.0824L28.0703 27.4973L28.5444 27.4973L28.7815 27.9122L29.0186 27.4973ZM30.9272 27.4973L31.3889 27.4973L31.1519 27.0824L31.3889 26.6801L30.9272 26.6801L30.6902 26.2651L30.4531 26.6801L29.979 26.6801L30.2161 27.0824L29.979 27.4973L30.4531 27.4973L30.6902 27.9122L30.9272 27.4973ZM32.8359 27.4973L33.2976 27.4973L33.0605 27.0824L33.2976 26.6801L32.8359 26.6801L32.5989 26.2651L32.3618 26.6801L31.8879 26.6801L32.125 27.0824L31.8879 27.4973L32.3618 27.4973L32.5989 27.9122L32.8359 27.4973ZM34.8071 27.4973L35.2812 27.4973L35.0442 27.0824L35.2812 26.6801L34.8071 26.6801L34.5701 26.2651L34.333 26.6801L33.8716 26.6801L34.0959 27.0824L33.8716 27.4973L34.333 27.4973L34.5701 27.9122L34.8071 27.4973ZM36.8032 27.4973L37.2773 27.4973L37.0403 27.0824L37.2773 26.6801L36.8032 26.6801L36.5662 26.2651L36.3291 26.6801L35.8677 26.6801L36.092 27.0824L35.8677 27.4973L36.3291 27.4973L36.5662 27.9122L36.8032 27.4973ZM38.6746 27.4973L39.1362 27.4973L38.8992 27.0824L39.1362 26.6801L38.6746 26.6801L38.4375 26.2651L38.2004 26.6801L37.7266 26.6801L37.9634 27.0824L37.7266 27.4973L38.2004 27.4973L38.4375 27.9122L38.6746 27.4973Z" stroke="#000000" stroke-opacity="1.000000" stroke-width="1.000000"/>
	</g>
</svg>
