<svg width="65.000000" height="43.000000" viewBox="0 0 65 43" fill="none" xmlns="http://www.w3.org/2000/svg" xmlns:xlink="http://www.w3.org/1999/xlink">
	<desc>
			Created with Pixso.
	</desc>
	<defs>
		<clipPath id="clip219_90">
			<rect id="HM" width="65.000000" height="43.000000" fill="white" fill-opacity="0"/>
		</clipPath>
	</defs>
	<rect id="HM" width="65.000000" height="43.000000" fill="#FFFFFF" fill-opacity="0"/>
	<g clip-path="url(#clip219_90)">
		<path id="Vector" d="M0 0L65 0L65 43.0005L0 43.0005L0 0Z" fill="#0052B4" fill-opacity="1.000000" fill-rule="nonzero"/>
		<path id="Vector" d="M28.361 21.4996C28.3956 21.4613 28.4299 21.4229 28.4642 21.3842C28.4299 21.423 28.3949 21.4611 28.3601 21.4996L28.361 21.4996ZM24.0217 26.7814L25.4128 29.668L28.5546 28.9476L27.1476 31.8265L29.674 33.8146L26.5286 34.5182L26.5372 37.7177L24.0217 35.7159L21.5062 37.7177L21.515 34.5182L18.3696 33.8146L20.896 31.8265L19.489 28.9476L22.6306 29.668L24.0217 26.7814ZM49.1405 30.3672L49.8041 31.744L51.3025 31.4004L50.6315 32.7734L51.8365 33.7218L50.3362 34.0574L50.3402 35.5834L49.1405 34.6288L47.9408 35.5834L47.9448 34.0574L46.4447 33.7218L47.6495 32.7734L46.9786 31.4004L48.4771 31.744L49.1405 30.3672ZM42.9677 15.7616L43.6312 17.1385L45.1296 16.7948L44.4586 18.168L45.6636 19.1163L44.1633 19.4518L44.1674 20.978L42.9677 20.0232L41.7678 20.978L41.7721 19.4518L40.2717 19.1163L41.4766 18.168L40.8058 16.7948L42.3041 17.1385L42.9677 15.7616ZM49.1405 7.41565L49.8041 8.7926L51.3025 8.44861L50.6315 9.82202L51.8364 10.7703L50.3362 11.1058L50.3402 12.632L49.1405 11.677L47.9408 12.632L47.9448 11.1058L46.4447 10.7703L47.6495 9.82202L46.9786 8.44861L48.4771 8.7926L49.1405 7.41565ZM54.5323 13.6752L55.1959 15.052L56.6942 14.7084L56.0234 16.0814L57.2283 17.0297L55.728 17.3652L55.7322 18.8914L54.5323 17.9368L53.3326 18.8914L53.3367 17.3652L51.8365 17.0297L53.0414 16.0814L52.3704 14.7084L53.8688 15.052L54.5323 13.6752ZM50.677 20.978L51.1989 22.5719L52.8878 22.5719L51.5214 23.557L52.0435 25.1509L50.677 24.1659L49.3104 25.1509L49.8324 23.557L48.4661 22.5719L50.155 22.5719L50.677 20.978Z" fill="#FFFFFF" fill-opacity="1.000000" fill-rule="nonzero"/>
		<path id="Vector" d="M32.5 0L32.5 3.849L26.7659 7.01086L32.5 7.01086L32.5 14.4886L24.9967 14.4886L32.5 18.6251L32.5 21.4995L29.1129 21.4995L19.7826 16.3564L19.7826 21.4995L12.7174 21.4995L12.7174 15.3805L1.61792 21.4995L0 21.4995L0 17.6506L5.73413 14.4886L0 14.4886L0 7.01086L7.5033 7.01086L0 2.87305L0 0L3.38708 0L12.7174 5.14331L12.7174 0L19.7826 0L19.7826 6.11902L30.8821 0L32.5 0Z" fill="#FFFFFF" fill-opacity="1.000000" fill-rule="nonzero"/>
		<path id="Vector" d="M18.2812 -0.000366211L14.2188 -0.000366211L14.2188 8.73389L0 8.73389L0 12.7651L14.2188 12.7651L14.2188 21.4995L18.2812 21.4995L18.2812 12.7651L32.5 12.7651L32.5 8.73389L18.2812 8.73389L18.2812 -0.000366211Z" fill="#D80027" fill-opacity="1.000000" fill-rule="nonzero"/>
		<path id="Vector" d="M19.7826 14.4886L32.5 21.4995L32.5 19.517L23.3788 14.4886L19.7826 14.4886Z" fill="#0052B4" fill-opacity="1.000000" fill-rule="nonzero"/>
		<path id="Vector" d="M19.7826 14.4886L32.5 21.4995L32.5 19.517L23.3788 14.4886L19.7826 14.4886Z" fill="#FFFFFF" fill-opacity="1.000000" fill-rule="nonzero"/>
		<path id="Vector" d="M19.7826 14.4886L32.5 21.4995L32.5 19.517L23.3788 14.4886L19.7826 14.4886ZM9.12109 14.4886L0 19.517L0 21.4995L12.7174 14.4886L9.12109 14.4886Z" fill="#D80027" fill-opacity="1.000000" fill-rule="nonzero"/>
		<path id="Vector" d="M12.7174 7.0105L0 -0.000366211L0 1.98218L9.12122 7.0105L12.7174 7.0105Z" fill="#0052B4" fill-opacity="1.000000" fill-rule="nonzero"/>
		<path id="Vector" d="M12.7174 7.0105L0 -0.000366211L0 1.98218L9.12122 7.0105L12.7174 7.0105Z" fill="#FFFFFF" fill-opacity="1.000000" fill-rule="nonzero"/>
		<path id="Vector" d="M12.7174 7.0105L0 -0.000366211L0 1.98218L9.12122 7.0105L12.7174 7.0105ZM23.3789 7.0105L32.5 1.98218L32.5 -0.000366211L19.7826 7.0105L23.3789 7.0105Z" fill="#D80027" fill-opacity="1.000000" fill-rule="nonzero"/>
	</g>
</svg>
